<svg width="771" height="1047" viewBox="0 0 771 1047" fill="none" xmlns="http://www.w3.org/2000/svg">
<mask id="mask0_43_2025" style="mask-type:alpha" maskUnits="userSpaceOnUse" x="-691" y="0" width="1462" height="1047">
<path d="M-494.65 666.918C-510.921 652.781 -526.326 638.728 -540.777 624.826C-620.136 548.49 -668.64 479.403 -684.942 419.485C-701.621 358.183 -683.818 307.966 -632.025 270.232C-474.78 155.668 -360.687 99.1282 -285.191 61.7138C-251.21 44.8743 -224.371 31.5735 -205.844 18.8771L-205.233 19.9541L-205.844 18.8771C-175.022 -2.24616 -105.529 -5.46943 -24.4853 10.4667C62.7307 27.6161 144.044 62.7677 198.607 106.908C273.864 167.79 370.133 213.765 437.641 241.613C516.278 274.051 602.614 300.932 668.589 313.519C711.18 321.645 742.133 347.556 758.1 388.453C785.747 459.267 764.997 565.737 703.946 666.315C675.009 713.988 645.087 763.283 613.686 808.666C578.97 858.841 546.117 898.671 513.25 930.432C474.004 968.36 433.716 996.095 390.084 1015.22C341.367 1036.58 289.584 1046.83 231.776 1046.56C133.042 1046.09 -75.9183 956.253 -276.376 828.095C-358.375 775.67 -432.769 720.687 -494.65 666.918ZM723.422 342.008C708.376 328.935 689.816 320.145 668.194 316.02C602.085 303.407 515.594 276.48 436.83 243.989C369.185 216.085 272.708 170.006 197.238 108.952C142.95 65.0349 61.9867 30.0481 -24.8923 12.9658C-105.396 -2.86377 -174.265 0.226532 -204.622 21.0311C-223.28 33.8176 -250.182 47.1492 -284.241 64.0282C-359.67 101.409 -473.659 157.898 -630.748 272.348C-681.595 309.392 -699.083 358.652 -682.73 418.759C-666.554 478.212 -618.282 546.901 -539.256 622.917C-469.954 689.581 -378.649 759.772 -275.214 825.901C-75.0713 953.859 133.416 1043.55 231.787 1044.02C289.293 1044.29 340.792 1034.1 389.228 1012.87C432.61 993.847 472.679 966.258 511.725 928.525C584.977 857.736 644.481 759.707 702.025 664.906C762.647 565.034 783.321 459.488 755.978 389.453C748.429 370.118 737.454 354.2 723.422 342.008Z" fill="url(#paint0_linear_43_2025)"/>
</mask>
<g mask="url(#mask0_43_2025)">
<path d="M-494.65 666.918C-510.921 652.781 -526.326 638.728 -540.777 624.826C-620.136 548.49 -668.64 479.403 -684.942 419.485C-701.621 358.183 -683.818 307.966 -632.025 270.232C-474.78 155.668 -360.687 99.1282 -285.191 61.7138C-251.21 44.8743 -224.371 31.5735 -205.844 18.8771L-205.233 19.9541L-205.844 18.8771C-175.022 -2.24616 -105.529 -5.46943 -24.4853 10.4667C62.7307 27.6161 144.044 62.7677 198.607 106.908C273.864 167.79 370.133 213.765 437.641 241.613C516.278 274.051 602.614 300.932 668.589 313.519C711.18 321.645 742.133 347.556 758.1 388.453C785.747 459.267 764.997 565.737 703.946 666.315C675.009 713.988 645.087 763.283 613.686 808.666C578.97 858.841 546.117 898.671 513.25 930.432C474.004 968.36 433.716 996.095 390.084 1015.22C341.367 1036.58 289.584 1046.83 231.776 1046.56C133.042 1046.09 -75.9183 956.253 -276.376 828.095C-358.375 775.67 -432.769 720.687 -494.65 666.918ZM723.422 342.008C708.376 328.935 689.816 320.145 668.194 316.02C602.085 303.407 515.594 276.48 436.83 243.989C369.185 216.085 272.708 170.006 197.238 108.952C142.95 65.0349 61.9867 30.0481 -24.8923 12.9658C-105.396 -2.86377 -174.265 0.226532 -204.622 21.0311C-223.28 33.8176 -250.182 47.1492 -284.241 64.0282C-359.67 101.409 -473.659 157.898 -630.748 272.348C-681.595 309.392 -699.083 358.652 -682.73 418.759C-666.554 478.212 -618.282 546.901 -539.256 622.917C-469.954 689.581 -378.649 759.772 -275.214 825.901C-75.0713 953.859 133.416 1043.55 231.787 1044.02C289.293 1044.29 340.792 1034.1 389.228 1012.87C432.61 993.847 472.679 966.258 511.725 928.525C584.977 857.736 644.481 759.707 702.025 664.906C762.647 565.034 783.321 459.488 755.978 389.453C748.429 370.118 737.454 354.2 723.422 342.008Z" fill="url(#paint1_linear_43_2025)"/>
</g>
<mask id="mask1_43_2025" style="mask-type:alpha" maskUnits="userSpaceOnUse" x="-637" y="26" width="1349" height="966">
<path d="M-460.462 642.158C-473.329 630.978 -485.587 619.86 -497.188 608.842C-570.354 539.346 -615.184 476.44 -630.43 421.869C-645.845 366.697 -630.29 321.422 -584.198 287.301C-445.671 183.114 -338.859 126.909 -268.18 89.7178C-235 72.2585 -208.793 58.4686 -190.133 45.525C-159.963 24.6237 -94.5223 20.2311 -19.3463 34.0605C61.1487 48.8691 137.206 81.0118 189.324 122.246C259.004 178.042 347.319 220.865 409.137 246.966C481.758 277.628 558.536 302.617 619.784 315.523C658.431 323.676 686.476 347.969 700.888 385.774C725.905 451.404 706.783 549.345 650.985 641.377L650.986 641.376C598.418 728.262 544.059 818.11 475.359 884.33C439.173 919.21 402.022 944.769 361.783 962.469C316.895 982.213 269.217 991.803 216.028 991.787C124.713 992.09 -68.3352 910.722 -253.426 793.916C-331.524 744.63 -402.206 692.777 -460.462 642.158ZM668.186 341.509C654.784 329.863 638.39 321.875 619.374 317.863C558.006 304.931 481.094 279.901 408.358 249.19C346.418 223.038 257.917 180.12 188.051 124.175C136.199 83.1515 60.4728 51.1605 -19.7042 36.4101C-94.3762 22.673 -159.237 26.937 -188.975 47.5394C-207.741 60.5567 -233.999 74.374 -267.242 91.8663C-337.862 129.027 -444.582 185.183 -582.979 289.273C-628.192 322.743 -643.457 367.117 -628.356 421.169C-613.231 475.305 -568.622 537.841 -495.768 607.038C-431.75 667.849 -347.574 731.754 -252.347 791.849C-67.5532 908.467 125.048 989.705 216.024 989.404C268.936 989.419 316.349 979.884 360.976 960.256C400.983 942.659 437.93 917.238 473.927 882.538C542.411 816.525 596.688 726.814 649.178 640.056V640.055C704.578 548.679 723.625 451.596 698.885 386.695C691.851 368.244 681.494 353.072 668.186 341.509Z" fill="url(#paint2_linear_43_2025)"/>
</mask>
<g mask="url(#mask1_43_2025)">
<path d="M-460.462 642.158C-473.329 630.978 -485.587 619.86 -497.188 608.842C-570.354 539.346 -615.184 476.44 -630.43 421.869C-645.845 366.697 -630.29 321.422 -584.198 287.301C-445.671 183.114 -338.859 126.909 -268.18 89.7178C-235 72.2585 -208.793 58.4686 -190.133 45.525C-159.963 24.6237 -94.5223 20.2311 -19.3463 34.0605C61.1487 48.8691 137.206 81.0118 189.324 122.246C259.004 178.042 347.319 220.865 409.137 246.966C481.758 277.628 558.536 302.617 619.784 315.523C658.431 323.676 686.476 347.969 700.888 385.774C725.905 451.404 706.783 549.345 650.985 641.377L650.986 641.376C598.418 728.262 544.059 818.11 475.359 884.33C439.173 919.21 402.022 944.769 361.783 962.469C316.895 982.213 269.217 991.803 216.028 991.787C124.713 992.09 -68.3352 910.722 -253.426 793.916C-331.524 744.63 -402.206 692.777 -460.462 642.158ZM668.186 341.509C654.784 329.863 638.39 321.875 619.374 317.863C558.006 304.931 481.094 279.901 408.358 249.19C346.418 223.038 257.917 180.12 188.051 124.175C136.199 83.1515 60.4728 51.1605 -19.7042 36.4101C-94.3762 22.673 -159.237 26.937 -188.975 47.5394C-207.741 60.5567 -233.999 74.374 -267.242 91.8663C-337.862 129.027 -444.582 185.183 -582.979 289.273C-628.192 322.743 -643.457 367.117 -628.356 421.169C-613.231 475.305 -568.622 537.841 -495.768 607.038C-431.75 667.849 -347.574 731.754 -252.347 791.849C-67.5532 908.467 125.048 989.705 216.024 989.404C268.936 989.419 316.349 979.884 360.976 960.256C400.983 942.659 437.93 917.238 473.927 882.538C542.411 816.525 596.688 726.814 649.178 640.056V640.055C704.578 548.679 723.625 451.596 698.885 386.695C691.851 368.244 681.494 353.072 668.186 341.509Z" fill="url(#paint3_linear_43_2025)"/>
</g>
<mask id="mask2_43_2025" style="mask-type:alpha" maskUnits="userSpaceOnUse" x="-582" y="51" width="1236" height="887">
<path d="M-426.217 617.558C-435.748 609.277 -444.889 601.045 -453.637 592.862C-520.613 530.207 -561.767 473.48 -575.956 424.256C-590.093 375.212 -576.775 334.877 -536.372 304.37C-415.67 209.893 -319.811 156.216 -249.817 117.024C-218.053 99.2371 -192.965 85.189 -174.42 72.1695C-144.443 51.1715 -84.551 45.7448 -14.208 57.6521C59.582 70.143 130.382 99.2766 180.04 137.582C296.222 229.493 477.485 295.549 570.978 317.525C605.689 325.705 630.831 348.385 643.685 383.117C666.055 443.562 648.557 532.967 598.02 616.441C552.716 691.614 501.365 776.82 437.464 838.229C404.34 870.061 370.326 893.445 333.479 909.714C292.42 927.844 248.849 936.775 200.276 937.018C158.177 937.553 93.736 920.306 13.926 887.142C-62.741 855.283 -149.549 810.039 -230.509 759.741C-304.688 713.656 -371.647 664.972 -426.217 617.558ZM612.938 340.949C601.191 330.741 586.966 323.572 570.552 319.705C476.893 297.689 295.29 231.503 178.864 139.4C129.463 101.293 58.974 72.2981 -14.518 59.8566C-84.387 48.0284 -143.756 53.3354 -173.33 74.0498C-191.956 87.1264 -217.084 101.198 -248.896 119.011C-318.833 158.173 -414.615 211.807 -535.21 306.197C-574.804 336.092 -587.857 375.584 -574.022 423.582C-559.95 472.402 -519.004 528.783 -452.322 591.163C-393.581 646.109 -316.535 703.734 -229.511 757.798C-148.639 808.042 -61.93 853.235 14.643 885.054C94.219 918.121 158.404 935.318 200.259 934.786C248.578 934.543 291.904 925.664 332.721 907.643C369.353 891.469 403.177 868.214 436.127 836.549C499.823 775.337 551.093 690.263 596.328 615.206L596.329 615.205C646.499 532.337 663.923 443.727 641.803 383.957C635.288 366.349 625.541 351.9 612.938 340.949Z" fill="url(#paint4_linear_43_2025)"/>
</mask>
<g mask="url(#mask2_43_2025)">
<path d="M-426.217 617.558C-435.748 609.277 -444.889 601.045 -453.637 592.862C-520.613 530.207 -561.767 473.48 -575.956 424.256C-590.093 375.212 -576.775 334.877 -536.372 304.37C-415.67 209.893 -319.811 156.216 -249.817 117.024C-218.053 99.2371 -192.965 85.189 -174.42 72.1695C-144.443 51.1715 -84.551 45.7448 -14.208 57.6521C59.582 70.143 130.382 99.2766 180.04 137.582C296.222 229.493 477.485 295.549 570.978 317.525C605.689 325.705 630.831 348.385 643.685 383.117C666.055 443.562 648.557 532.967 598.02 616.441C552.716 691.614 501.365 776.82 437.464 838.229C404.34 870.061 370.326 893.445 333.479 909.714C292.42 927.844 248.849 936.775 200.276 937.018C158.177 937.553 93.736 920.306 13.926 887.142C-62.741 855.283 -149.549 810.039 -230.509 759.741C-304.688 713.656 -371.647 664.972 -426.217 617.558ZM612.938 340.949C601.191 330.741 586.966 323.572 570.552 319.705C476.893 297.689 295.29 231.503 178.864 139.4C129.463 101.293 58.974 72.2981 -14.518 59.8566C-84.387 48.0284 -143.756 53.3354 -173.33 74.0498C-191.956 87.1264 -217.084 101.198 -248.896 119.011C-318.833 158.173 -414.615 211.807 -535.21 306.197C-574.804 336.092 -587.857 375.584 -574.022 423.582C-559.95 472.402 -519.004 528.783 -452.322 591.163C-393.581 646.109 -316.535 703.734 -229.511 757.798C-148.639 808.042 -61.93 853.235 14.643 885.054C94.219 918.121 158.404 935.318 200.259 934.786C248.578 934.543 291.904 925.664 332.721 907.643C369.353 891.469 403.177 868.214 436.127 836.549C499.823 775.337 551.093 690.263 596.328 615.206L596.329 615.205C646.499 532.337 663.923 443.727 641.803 383.957C635.288 366.349 625.541 351.9 612.938 340.949Z" fill="url(#paint5_linear_43_2025)"/>
</g>
<mask id="mask3_43_2025" style="mask-type:alpha" maskUnits="userSpaceOnUse" x="-527" y="76" width="1122" height="807">
<path d="M-391.904 593.16C-398.176 587.711 -404.252 582.287 -410.136 576.884C-470.924 521.071 -508.402 470.523 -521.532 426.647C-534.375 383.726 -523.278 348.328 -488.547 321.439C-384.58 235.756 -294.833 182.153 -229.303 143.014C-201.066 126.15 -176.68 111.584 -158.707 98.8139C-129.362 78.0269 -73.4228 71.4584 -9.06976 81.2436C58.0363 91.4464 123.58 117.571 170.756 152.918C217.043 189.006 279.755 225.225 352.126 257.671C410.216 283.714 472.195 306.261 522.173 319.528C552.963 327.728 575.209 348.807 586.5 380.486C606.2 435.749 590.32 516.605 545.057 591.501C497.783 670.315 454.204 739.813 399.571 792.125C369.51 820.911 338.633 842.116 305.177 856.956C267.948 873.469 228.482 881.742 184.527 882.245C145.907 883.165 87.0812 868.13 14.4193 838.762C-55.0938 810.667 -133.952 770.468 -207.628 725.57C-277.884 682.756 -341.093 637.31 -391.904 593.16ZM557.676 340.304C547.6 331.549 535.544 325.227 521.728 321.546C471.663 308.255 409.585 285.674 351.412 259.594C278.909 227.089 216.066 190.791 169.676 154.623C122.747 119.461 57.4973 93.4608 -9.32977 83.3009C-73.2488 73.5816 -128.708 80.0336 -157.684 100.559C-175.716 113.371 -200.132 127.954 -228.402 144.839C-293.881 183.948 -383.558 237.509 -487.437 323.118C-521.431 349.438 -532.291 384.046 -519.738 425.998C-506.72 469.5 -469.438 519.729 -408.926 575.289C-355.455 624.376 -285.537 675.717 -206.714 723.753C-133.12 768.602 -54.3557 808.754 15.0703 836.813C87.5112 866.092 146.098 881.084 184.495 880.168C228.221 879.667 267.46 871.445 304.468 855.03C337.726 840.278 368.428 819.19 398.329 790.559C452.782 738.42 496.282 669.043 543.481 590.355L543.483 590.353C588.41 516.012 604.219 435.886 584.74 381.243C578.747 364.431 569.6 350.666 557.676 340.304Z" fill="url(#paint6_linear_43_2025)"/>
</mask>
<g mask="url(#mask3_43_2025)">
<path d="M-391.904 593.16C-398.176 587.711 -404.252 582.287 -410.136 576.884C-470.924 521.071 -508.402 470.523 -521.532 426.647C-534.375 383.726 -523.278 348.328 -488.547 321.439C-384.58 235.756 -294.833 182.153 -229.303 143.014C-201.066 126.15 -176.68 111.584 -158.707 98.8139C-129.362 78.0269 -73.4228 71.4584 -9.06976 81.2436C58.0363 91.4464 123.58 117.571 170.756 152.918C217.043 189.006 279.755 225.225 352.126 257.671C410.216 283.714 472.195 306.261 522.173 319.528C552.963 327.728 575.209 348.807 586.5 380.486C606.2 435.749 590.32 516.605 545.057 591.501C497.783 670.315 454.204 739.813 399.571 792.125C369.51 820.911 338.633 842.116 305.177 856.956C267.948 873.469 228.482 881.742 184.527 882.245C145.907 883.165 87.0812 868.13 14.4193 838.762C-55.0938 810.667 -133.952 770.468 -207.628 725.57C-277.884 682.756 -341.093 637.31 -391.904 593.16ZM557.676 340.304C547.6 331.549 535.544 325.227 521.728 321.546C471.663 308.255 409.585 285.674 351.412 259.594C278.909 227.089 216.066 190.791 169.676 154.623C122.747 119.461 57.4973 93.4608 -9.32977 83.3009C-73.2488 73.5816 -128.708 80.0336 -157.684 100.559C-175.716 113.371 -200.132 127.954 -228.402 144.839C-293.881 183.948 -383.558 237.509 -487.437 323.118C-521.431 349.438 -532.291 384.046 -519.738 425.998C-506.72 469.5 -469.438 519.729 -408.926 575.289C-355.455 624.376 -285.537 675.717 -206.714 723.753C-133.12 768.602 -54.3557 808.754 15.0703 836.813C87.5112 866.092 146.098 881.084 184.495 880.168C228.221 879.667 267.46 871.445 304.468 855.03C337.726 840.278 368.428 819.19 398.329 790.559C452.782 738.42 496.282 669.043 543.481 590.355L543.483 590.353C588.41 516.012 604.219 435.886 584.74 381.243C578.747 364.431 569.6 350.666 557.676 340.304Z" fill="url(#paint7_linear_43_2025)"/>
</g>
<mask id="mask4_43_2025" style="mask-type:alpha" maskUnits="userSpaceOnUse" x="-473" y="101" width="1010" height="727">
<path d="M-357.508 569.037C-360.629 566.326 -363.693 563.621 -366.701 560.922C-421.302 511.95 -455.107 467.585 -467.177 429.056C-478.708 392.247 -469.808 361.783 -440.724 338.511C-352.232 260.348 -267.351 206.171 -205.373 166.611C-180.796 150.925 -159.571 137.378 -142.995 125.458C-113.832 104.565 -63.1459 97.0489 -3.93292 104.836C56.5211 112.787 116.809 135.903 161.472 168.257C248.289 234.749 384.006 294.318 473.371 321.534C500.26 329.758 519.613 349.25 529.339 377.903C546.339 427.982 532.068 500.275 492.095 566.565L492.097 566.561C451.944 633.896 411.755 698.29 361.678 746.025C334.679 771.76 306.94 790.79 276.874 804.201C243.475 819.097 208.116 826.711 168.777 827.475C133.625 828.781 80.4061 815.96 14.886 790.395C-47.485 766.058 -118.401 730.905 -184.798 691.414C-251.113 651.971 -310.552 609.836 -357.508 569.037ZM502.395 339.544C494.011 332.259 484.128 326.82 472.902 323.387C383.399 296.129 247.456 236.455 160.49 169.847C116.064 137.667 56.0521 114.662 -4.14093 106.745C-62.9519 99.0106 -113.214 106.419 -142.038 127.069C-158.652 139.014 -179.895 152.573 -204.494 168.274C-266.423 207.803 -351.239 261.938 -439.661 340.037C-468.085 362.783 -476.775 392.513 -465.523 428.431C-453.56 466.615 -419.94 510.691 -365.596 559.433C-317.391 602.646 -254.593 647.716 -183.966 689.722C-117.646 729.169 -46.8179 764.278 15.4711 788.582C80.7861 814.067 133.783 826.852 168.731 825.554C207.865 824.793 243.019 817.227 276.215 802.421C306.099 789.091 333.679 770.169 360.53 744.573C410.438 697 450.549 632.726 490.632 565.508L490.634 565.504C530.303 499.716 544.505 428.09 527.697 378.576C522.237 362.485 513.673 349.343 502.395 339.544Z" fill="url(#paint8_linear_43_2025)"/>
</mask>
<g mask="url(#mask4_43_2025)">
<path d="M-357.508 569.037C-360.629 566.326 -363.693 563.621 -366.701 560.922C-421.302 511.95 -455.107 467.585 -467.177 429.056C-478.708 392.247 -469.808 361.783 -440.724 338.511C-352.232 260.348 -267.351 206.171 -205.373 166.611C-180.796 150.925 -159.571 137.378 -142.995 125.458C-113.832 104.565 -63.1459 97.0489 -3.93292 104.836C56.5211 112.787 116.809 135.903 161.472 168.257C248.289 234.749 384.006 294.318 473.371 321.534C500.26 329.758 519.613 349.25 529.339 377.903C546.339 427.982 532.068 500.275 492.095 566.565L492.097 566.561C451.944 633.896 411.755 698.29 361.678 746.025C334.679 771.76 306.94 790.79 276.874 804.201C243.475 819.097 208.116 826.711 168.777 827.475C133.625 828.781 80.4061 815.96 14.886 790.395C-47.485 766.058 -118.401 730.905 -184.798 691.414C-251.113 651.971 -310.552 609.836 -357.508 569.037ZM502.395 339.544C494.011 332.259 484.128 326.82 472.902 323.387C383.399 296.129 247.456 236.455 160.49 169.847C116.064 137.667 56.0521 114.662 -4.14093 106.745C-62.9519 99.0106 -113.214 106.419 -142.038 127.069C-158.652 139.014 -179.895 152.573 -204.494 168.274C-266.423 207.803 -351.239 261.938 -439.661 340.037C-468.085 362.783 -476.775 392.513 -465.523 428.431C-453.56 466.615 -419.94 510.691 -365.596 559.433C-317.391 602.646 -254.593 647.716 -183.966 689.722C-117.646 729.169 -46.8179 764.278 15.4711 788.582C80.7861 814.067 133.783 826.852 168.731 825.554C207.865 824.793 243.019 817.227 276.215 802.421C306.099 789.091 333.679 770.169 360.53 744.573C410.438 697 450.549 632.726 490.632 565.508L490.634 565.504C530.303 499.716 544.505 428.09 527.697 378.576C522.237 362.485 513.673 349.343 502.395 339.544Z" fill="url(#paint9_linear_43_2025)"/>
</g>
<mask id="mask5_43_2025" style="mask-type:alpha" maskUnits="userSpaceOnUse" x="-418" y="126" width="896" height="647">
<path d="M-323.009 545.287C-323.125 545.187 -323.238 545.088 -323.354 544.987C-371.773 502.858 -401.907 464.674 -412.921 431.496C-423.117 400.781 -416.382 375.24 -392.903 355.583C-318.648 283.209 -236.252 227.028 -176.09 186.008C-157.251 173.163 -140.98 162.069 -127.282 152.104C-98.71 131.396 -51.879 122.768 1.202 128.43C55.046 134.173 110.078 154.28 152.187 183.595C190.001 211.917 238.083 240.438 295.118 268.381C338.023 289.401 385.206 309.507 424.571 323.543C447.583 331.793 464.055 349.72 472.207 375.391C486.464 420.282 473.79 483.981 439.131 541.629C405.728 598.064 369.303 656.779 323.784 699.924C299.849 722.611 275.247 739.464 248.571 751.446C219.003 764.727 187.751 771.68 153.027 772.704C90.2129 776.063 -36.406 729.677 -162.032 657.278C-224.385 621.343 -280.04 582.624 -323.009 545.287ZM447.086 338.61C440.424 332.82 432.721 328.325 424.074 325.223C384.659 311.17 337.418 291.04 294.463 269.996C237.34 242.009 189.174 213.437 151.303 185.072C109.423 155.916 54.648 135.906 1.04697 130.189C-51.674 124.566 -98.1251 133.091 -126.395 153.58C-140.112 163.56 -156.392 174.659 -175.242 187.512C-235.355 228.499 -317.682 284.632 -391.882 356.949C-414.781 376.123 -421.336 400.986 -411.409 430.889C-400.499 463.756 -370.537 501.677 -322.356 543.6C-322.243 543.698 -322.125 543.801 -322.012 543.899C-279.119 581.171 -223.556 619.824 -161.285 655.711C-35.892 727.975 90.3959 774.281 152.966 770.935C187.509 769.916 218.576 763.005 247.961 749.806C274.473 737.899 298.931 721.143 322.732 698.582C368.091 655.589 404.441 596.991 437.784 540.657L437.787 540.652C472.174 483.455 484.781 420.352 470.686 375.973C465.773 360.496 457.768 347.892 447.086 338.61Z" fill="url(#paint10_linear_43_2025)"/>
</mask>
<g mask="url(#mask5_43_2025)">
<path d="M-323.009 545.287C-323.125 545.187 -323.238 545.088 -323.354 544.987C-371.773 502.858 -401.907 464.674 -412.921 431.496C-423.117 400.781 -416.382 375.24 -392.903 355.583C-318.648 283.209 -236.252 227.028 -176.09 186.008C-157.251 173.163 -140.98 162.069 -127.282 152.104C-98.71 131.396 -51.879 122.768 1.202 128.43C55.046 134.173 110.078 154.28 152.187 183.595C190.001 211.917 238.083 240.438 295.118 268.381C338.023 289.401 385.206 309.507 424.571 323.543C447.583 331.793 464.055 349.72 472.207 375.391C486.464 420.282 473.79 483.981 439.131 541.629C405.728 598.064 369.303 656.779 323.784 699.924C299.849 722.611 275.247 739.464 248.571 751.446C219.003 764.727 187.751 771.68 153.027 772.704C90.2129 776.063 -36.406 729.677 -162.032 657.278C-224.385 621.343 -280.04 582.624 -323.009 545.287ZM447.086 338.61C440.424 332.82 432.721 328.325 424.074 325.223C384.659 311.17 337.418 291.04 294.463 269.996C237.34 242.009 189.174 213.437 151.303 185.072C109.423 155.916 54.648 135.906 1.04697 130.189C-51.674 124.566 -98.1251 133.091 -126.395 153.58C-140.112 163.56 -156.392 174.659 -175.242 187.512C-235.355 228.499 -317.682 284.632 -391.882 356.949C-414.781 376.123 -421.336 400.986 -411.409 430.889C-400.499 463.756 -370.537 501.677 -322.356 543.6C-322.243 543.698 -322.125 543.801 -322.012 543.899C-279.119 581.171 -223.556 619.824 -161.285 655.711C-35.892 727.975 90.3959 774.281 152.966 770.935C187.509 769.916 218.576 763.005 247.961 749.806C274.473 737.899 298.931 721.143 322.732 698.582C368.091 655.589 404.441 596.991 437.784 540.657L437.787 540.652C472.174 483.455 484.781 420.352 470.686 375.973C465.773 360.496 457.768 347.892 447.086 338.61Z" fill="url(#paint11_linear_43_2025)"/>
</g>
<mask id="mask6_43_2025" style="mask-type:alpha" maskUnits="userSpaceOnUse" x="-364" y="151" width="784" height="568">
<path d="M-288.568 521.92C-325.913 489.472 -349.523 459.928 -358.81 434.004C-367.639 409.359 -363.033 388.733 -345.117 372.691C-284.355 303.77 -200.05 242.823 -138.493 198.321C-128.834 191.338 -119.709 184.741 -111.566 178.747C-83.131 157.898 -41.258 148.407 6.34003 152.023C54.333 155.669 102.833 172.328 142.905 198.932C169.771 218.484 246.19 269.923 375.778 325.553C394.95 333.838 408.555 350.241 415.12 372.996C426.572 412.68 415.479 467.74 386.173 516.685C359.125 562.831 326.839 615.294 285.891 653.823C242.618 694.541 194.007 715.511 137.28 717.934C109.023 720.02 66.978 711.643 15.71 693.705C-33.121 676.621 -86.74 652.236 -139.348 623.186C-193.674 593.187 -242.354 560.658 -280.124 529.112C-283.012 526.701 -285.828 524.302 -288.568 521.92ZM391.738 337.41C386.846 333.159 381.33 329.688 375.24 327.056C354.51 318.158 312.747 299.586 265.987 275.194C216.901 249.591 175.225 224.392 142.117 200.296C102.266 173.839 54.001 157.261 6.237 153.633C-41.038 150.041 -82.585 159.437 -110.75 180.089C-118.897 186.086 -128.024 192.683 -137.686 199.669C-199.197 244.137 -283.44 305.04 -344.092 373.848L-344.156 373.913C-361.545 389.464 -366.015 409.482 -357.443 433.412C-347.713 460.571 -320.671 493.217 -279.234 527.826C-241.535 559.313 -192.935 591.788 -138.688 621.742C-86.147 650.754 -32.603 675.105 16.156 692.166C67.249 710.042 109.107 718.395 137.202 716.32C193.606 713.911 241.923 693.067 284.935 652.595C325.732 614.208 357.946 561.861 384.938 515.808L384.942 515.801C414.014 467.25 425.041 412.717 413.719 373.482C409.379 358.446 401.905 346.243 391.738 337.41Z" fill="url(#paint12_linear_43_2025)"/>
</mask>
<g mask="url(#mask6_43_2025)">
<path d="M-288.568 521.92C-325.913 489.472 -349.523 459.928 -358.81 434.004C-367.639 409.359 -363.033 388.733 -345.117 372.691C-284.355 303.77 -200.05 242.823 -138.493 198.321C-128.834 191.338 -119.709 184.741 -111.566 178.747C-83.131 157.898 -41.258 148.407 6.34003 152.023C54.333 155.669 102.833 172.328 142.905 198.932C169.771 218.484 246.19 269.923 375.778 325.553C394.95 333.838 408.555 350.241 415.12 372.996C426.572 412.68 415.479 467.74 386.173 516.685C359.125 562.831 326.839 615.294 285.891 653.823C242.618 694.541 194.007 715.511 137.28 717.934C109.023 720.02 66.978 711.643 15.71 693.705C-33.121 676.621 -86.74 652.236 -139.348 623.186C-193.674 593.187 -242.354 560.658 -280.124 529.112C-283.012 526.701 -285.828 524.302 -288.568 521.92ZM391.738 337.41C386.846 333.159 381.33 329.688 375.24 327.056C354.51 318.158 312.747 299.586 265.987 275.194C216.901 249.591 175.225 224.392 142.117 200.296C102.266 173.839 54.001 157.261 6.237 153.633C-41.038 150.041 -82.585 159.437 -110.75 180.089C-118.897 186.086 -128.024 192.683 -137.686 199.669C-199.197 244.137 -283.44 305.04 -344.092 373.848L-344.156 373.913C-361.545 389.464 -366.015 409.482 -357.443 433.412C-347.713 460.571 -320.671 493.217 -279.234 527.826C-241.535 559.313 -192.935 591.788 -138.688 621.742C-86.147 650.754 -32.603 675.105 16.156 692.166C67.249 710.042 109.107 718.395 137.202 716.32C193.606 713.911 241.923 693.067 284.935 652.595C325.732 614.208 357.946 561.861 384.938 515.808L384.942 515.801C414.014 467.25 425.041 412.717 413.719 373.482C409.379 358.446 401.905 346.243 391.738 337.41Z" fill="url(#paint13_linear_43_2025)"/>
</g>
<mask id="mask7_43_2025" style="mask-type:alpha" maskUnits="userSpaceOnUse" x="-310" y="175" width="672" height="489">
<path d="M-253.295 499.947C-279.811 476.907 -297.519 455.253 -304.929 436.668C-312.368 418.009 -309.808 402.24 -297.321 389.795C-250.885 320.846 -142.249 239.943 -95.8524 205.392C-37.8105 162.323 56.5516 165.976 133.619 214.273C192.726 255.665 268.351 296.162 313.534 320.358C318.332 322.928 322.833 325.338 326.987 327.573C342.377 335.913 353.13 350.869 358.087 370.817C366.645 405.255 357.111 451.595 333.209 491.749C309.387 532.944 282.574 575.508 247.997 607.722C211.097 642.1 169.73 660.235 121.533 663.163C72.7206 668.044 -20.8255 639.007 -116.765 589.187C-162.895 565.231 -204.488 539.014 -237.045 513.37C-242.778 508.853 -248.201 504.372 -253.295 499.947ZM336.337 335.77C333.29 333.123 329.974 330.82 326.401 328.884C322.249 326.65 317.75 324.241 312.952 321.671C267.743 297.461 192.076 256.941 132.932 215.522C56.3156 167.509 -37.4695 163.833 -95.1075 206.602C-141.461 241.12 -250.014 321.959 -296.292 390.722L-296.332 390.78L-296.381 390.829C-308.439 402.814 -310.906 418.038 -303.712 436.08C-294.974 457.995 -271.652 484.313 -236.271 512.181C-203.778 537.775 -162.257 563.947 -116.197 587.865C-20.4565 637.582 72.8195 666.566 121.436 661.704C228.473 655.202 284.191 573.79 332.089 490.96L332.094 490.951C355.797 451.134 365.266 405.248 356.805 371.2C353.104 356.31 346.113 344.265 336.337 335.77Z" fill="url(#paint14_linear_43_2025)"/>
</mask>
<g mask="url(#mask7_43_2025)">
<path d="M-253.295 499.947C-279.811 476.907 -297.519 455.253 -304.929 436.668C-312.368 418.009 -309.808 402.24 -297.321 389.795C-250.885 320.846 -142.249 239.943 -95.8524 205.392C-37.8105 162.323 56.5516 165.976 133.619 214.273C192.726 255.665 268.351 296.162 313.534 320.358C318.332 322.928 322.833 325.338 326.987 327.573C342.377 335.913 353.13 350.869 358.087 370.817C366.645 405.255 357.111 451.595 333.209 491.749C309.387 532.944 282.574 575.508 247.997 607.722C211.097 642.1 169.73 660.235 121.533 663.163C72.7206 668.044 -20.8255 639.007 -116.765 589.187C-162.895 565.231 -204.488 539.014 -237.045 513.37C-242.778 508.853 -248.201 504.372 -253.295 499.947ZM336.337 335.77C333.29 333.123 329.974 330.82 326.401 328.884C322.249 326.65 317.75 324.241 312.952 321.671C267.743 297.461 192.076 256.941 132.932 215.522C56.3156 167.509 -37.4695 163.833 -95.1075 206.602C-141.461 241.12 -250.014 321.959 -296.292 390.722L-296.332 390.78L-296.381 390.829C-308.439 402.814 -310.906 418.038 -303.712 436.08C-294.974 457.995 -271.652 484.313 -236.271 512.181C-203.778 537.775 -162.257 563.947 -116.197 587.865C-20.4565 637.582 72.8195 666.566 121.436 661.704C228.473 655.202 284.191 573.79 332.089 490.96L332.094 490.951C355.797 451.134 365.266 405.248 356.805 371.2C353.104 356.31 346.113 344.265 336.337 335.77Z" fill="url(#paint15_linear_43_2025)"/>
</g>
<mask id="mask8_43_2025" style="mask-type:alpha" maskUnits="userSpaceOnUse" x="-256" y="199" width="559" height="411">
<path d="M-218.105 479.149C-234.315 465.066 -245.785 451.652 -251.41 439.722C-257.468 426.874 -256.842 415.844 -249.55 406.939C-241.6 384.105 -218.176 353.735 -179.925 316.667C-152.061 289.664 -115.69 258.816 -80.1377 232.034C-23.0327 189.148 53.4054 188.242 124.334 229.611C148.226 245.459 173.44 261.473 197.825 276.96C229.361 296.989 259.148 315.906 278.206 329.603C294.205 341.191 302.96 362.263 302.868 388.922C302.781 414.19 294.537 442.577 280.246 466.806C248.384 522.998 226.023 546.993 210.102 561.618C179.593 589.643 145.472 604.942 105.787 608.388C63.7414 614.059 -12.9136 593.76 -94.2356 555.41C-146.185 530.914 -189.513 503.991 -218.105 479.149ZM280.875 333.336C279.806 332.406 278.699 331.528 277.554 330.696C258.525 317.021 228.752 298.112 197.231 278.093C172.841 262.603 147.622 246.586 123.749 230.748C53.2454 189.629 -22.7326 190.507 -79.4646 233.113C-114.978 259.866 -151.307 290.677 -179.137 317.647C-217.305 354.635 -240.634 384.872 -248.477 407.52L-248.517 407.635L-248.592 407.726C-255.587 416.2 -256.18 426.764 -250.353 439.12C-234.927 471.837 -174.927 515.936 -93.7666 554.21C-12.6256 592.474 63.7934 612.737 105.668 607.09C145.124 603.663 179.027 588.463 209.34 560.617C239.52 532.893 262.549 495.549 279.24 466.112L279.246 466.102C293.417 442.078 301.594 413.945 301.68 388.917C301.762 364.635 294.408 345.095 280.875 333.336Z" fill="url(#paint16_linear_43_2025)"/>
</mask>
<g mask="url(#mask8_43_2025)">
<path d="M-218.105 479.149C-234.315 465.066 -245.785 451.652 -251.41 439.722C-257.468 426.874 -256.842 415.844 -249.55 406.939C-241.6 384.105 -218.176 353.735 -179.925 316.667C-152.061 289.664 -115.69 258.816 -80.1377 232.034C-23.0327 189.148 53.4054 188.242 124.334 229.611C148.226 245.459 173.44 261.473 197.825 276.96C229.361 296.989 259.148 315.906 278.206 329.603C294.205 341.191 302.96 362.263 302.868 388.922C302.781 414.19 294.537 442.577 280.246 466.806C248.384 522.998 226.023 546.993 210.102 561.618C179.593 589.643 145.472 604.942 105.787 608.388C63.7414 614.059 -12.9136 593.76 -94.2356 555.41C-146.185 530.914 -189.513 503.991 -218.105 479.149ZM280.875 333.336C279.806 332.406 278.699 331.528 277.554 330.696C258.525 317.021 228.752 298.112 197.231 278.093C172.841 262.603 147.622 246.586 123.749 230.748C53.2454 189.629 -22.7326 190.507 -79.4646 233.113C-114.978 259.866 -151.307 290.677 -179.137 317.647C-217.305 354.635 -240.634 384.872 -248.477 407.52L-248.517 407.635L-248.592 407.726C-255.587 416.2 -256.18 426.764 -250.353 439.12C-234.927 471.837 -174.927 515.936 -93.7666 554.21C-12.6256 592.474 63.7934 612.737 105.668 607.09C145.124 603.663 179.027 588.463 209.34 560.617C239.52 532.893 262.549 495.549 279.24 466.112L279.246 466.102C293.417 442.078 301.594 413.945 301.68 388.917C301.762 364.635 294.408 345.095 280.875 333.336Z" fill="url(#paint17_linear_43_2025)"/>
</g>
<mask id="mask9_43_2025" style="mask-type:alpha" maskUnits="userSpaceOnUse" x="-204" y="222" width="449" height="334">
<path d="M-182.963 460.717C-189.666 454.893 -194.844 449.307 -198.243 444.113C-203.215 436.517 -204.41 429.824 -201.796 424.216C-206.54 403.391 -180.638 369.19 -158.027 344.122C-132.532 315.858 -97.5388 283.916 -64.4198 258.679C-35.8938 236.992 -7.71184 225.259 21.7362 222.81C51.8102 220.31 82.3342 227.554 115.052 244.954C162.643 274.037 207.533 308.066 229.434 331.664C240.056 343.216 245.43 361.361 244.568 382.759C243.762 402.776 237.463 424.322 227.285 441.869C201.366 489.039 162.343 544.366 90.0451 553.62C55.0371 560.049 -5.21085 548.362 -71.0918 522.355C-119.234 503.349 -160.015 480.655 -182.963 460.717ZM208.693 313.437C184.634 292.532 150.366 267.852 114.569 245.976C82.0491 228.681 51.7001 221.475 21.8161 223.96C-7.44188 226.393 -35.4539 238.06 -63.8219 259.626C-125.725 306.798 -209.127 389.026 -200.729 424.14L-200.677 424.359L-200.774 424.558C-203.307 429.787 -202.169 436.139 -197.391 443.439C-182.47 466.236 -132.756 496.785 -70.7348 521.267C-5.01485 547.212 55.0352 558.878 89.9002 552.476C161.775 543.276 200.597 488.21 226.391 441.266L226.398 441.254C236.482 423.87 242.723 402.53 243.521 382.706C244.369 361.638 239.105 343.802 228.699 332.484C223.321 326.692 216.551 320.265 208.693 313.437Z" fill="url(#paint18_linear_43_2025)"/>
</mask>
<g mask="url(#mask9_43_2025)">
<path d="M-182.963 460.717C-189.666 454.893 -194.844 449.307 -198.243 444.113C-203.215 436.517 -204.41 429.824 -201.796 424.216C-206.54 403.391 -180.638 369.19 -158.027 344.122C-132.532 315.858 -97.5388 283.916 -64.4198 258.679C-35.8938 236.992 -7.71184 225.259 21.7362 222.81C51.8102 220.31 82.3342 227.554 115.052 244.954C162.643 274.037 207.533 308.066 229.434 331.664C240.056 343.216 245.43 361.361 244.568 382.759C243.762 402.776 237.463 424.322 227.285 441.869C201.366 489.039 162.343 544.366 90.0451 553.62C55.0371 560.049 -5.21085 548.362 -71.0918 522.355C-119.234 503.349 -160.015 480.655 -182.963 460.717ZM208.693 313.437C184.634 292.532 150.366 267.852 114.569 245.976C82.0491 228.681 51.7001 221.475 21.8161 223.96C-7.44188 226.393 -35.4539 238.06 -63.8219 259.626C-125.725 306.798 -209.127 389.026 -200.729 424.14L-200.677 424.359L-200.774 424.558C-203.307 429.787 -202.169 436.139 -197.391 443.439C-182.47 466.236 -132.756 496.785 -70.7348 521.267C-5.01485 547.212 55.0352 558.878 89.9002 552.476C161.775 543.276 200.597 488.21 226.391 441.266L226.398 441.254C236.482 423.87 242.723 402.53 243.521 382.706C244.369 361.638 239.105 343.802 228.699 332.484C223.321 326.692 216.551 320.265 208.693 313.437Z" fill="url(#paint19_linear_43_2025)"/>
</g>
<mask id="mask10_43_2025" style="mask-type:alpha" maskUnits="userSpaceOnUse" x="-163" y="244" width="350" height="259">
<path d="M-148.043 448.665C-150.933 446.154 -152.896 443.79 -153.798 441.639C-159.174 438.214 -162.041 433.068 -162.323 426.351C-163.15 406.699 -142.08 377.779 -124.259 356.98C-103.054 332.23 -74.8081 305.442 -48.7031 285.321C-19.1561 262.577 4.14893 250.576 26.8639 246.411C51.0969 241.968 76.1689 246.379 105.769 260.295C138.495 277.684 167.881 306.519 180.658 333.769C192.038 358.291 186.375 395.304 174.326 416.926C150.626 462.645 116.976 490.207 74.3129 498.844C57.6999 503.109 36.0839 503.833 10.0899 500.992C-12.4161 498.532 -37.5781 493.404 -62.6761 486.163C-101.968 474.824 -134.773 460.194 -148.043 448.665ZM-153.087 440.935L-153.027 441.086C-152.195 443.177 -150.296 445.481 -147.479 447.929C-118.274 473.31 9.79993 514.378 74.1269 497.866C116.538 489.279 149.978 461.88 173.54 416.423L173.547 416.409C185.467 395.024 191.084 358.435 179.848 334.225C167.157 307.158 137.932 278.494 105.392 261.205C75.9779 247.377 51.0669 242.986 27.0139 247.397C4.43988 251.536 -18.7511 263.484 -48.1811 286.139C-74.2381 306.223 -102.432 332.962 -123.597 357.665C-141.298 378.323 -162.227 407.002 -161.415 426.305C-161.146 432.711 -158.386 437.608 -153.218 440.853L-153.087 440.935Z" fill="url(#paint20_linear_43_2025)"/>
</mask>
<g mask="url(#mask10_43_2025)">
<path d="M-148.043 448.665C-150.933 446.154 -152.896 443.79 -153.798 441.639C-159.174 438.214 -162.041 433.068 -162.323 426.351C-163.15 406.699 -142.08 377.779 -124.259 356.98C-103.054 332.23 -74.8081 305.442 -48.7031 285.321C-19.1561 262.577 4.14893 250.576 26.8639 246.411C51.0969 241.968 76.1689 246.379 105.769 260.295C138.495 277.684 167.881 306.519 180.658 333.769C192.038 358.291 186.375 395.304 174.326 416.926C150.626 462.645 116.976 490.207 74.3129 498.844C57.6999 503.109 36.0839 503.833 10.0899 500.992C-12.4161 498.532 -37.5781 493.404 -62.6761 486.163C-101.968 474.824 -134.773 460.194 -148.043 448.665ZM-153.087 440.935L-153.027 441.086C-152.195 443.177 -150.296 445.481 -147.479 447.929C-118.274 473.31 9.79993 514.378 74.1269 497.866C116.538 489.279 149.978 461.88 173.54 416.423L173.547 416.409C185.467 395.024 191.084 358.435 179.848 334.225C167.157 307.158 137.932 278.494 105.392 261.205C75.9779 247.377 51.0669 242.986 27.0139 247.397C4.43988 251.536 -18.7511 263.484 -48.1811 286.139C-74.2381 306.223 -102.432 332.962 -123.597 357.665C-141.298 378.323 -162.227 407.002 -161.415 426.305C-161.146 432.711 -158.386 437.608 -153.218 440.853L-153.087 440.935Z" fill="url(#paint21_linear_43_2025)"/>
</g>
<mask id="mask11_43_2025" style="mask-type:alpha" maskUnits="userSpaceOnUse" x="-129" y="266" width="261" height="196">
<path d="M-122.456 452.315C-125.349 449.8 -127.258 446.605 -128.166 442.739C-130.442 433.045 -127.427 414.13 -100.139 379.069C-81.8471 355.568 -56.7432 330.481 -32.9862 311.961C-4.91017 290.075 13.4728 276.33 31.9868 270.018C51.1398 263.488 69.8269 265.116 96.4859 275.638C111.181 281.436 121.446 292.029 126.999 307.116C139.004 339.741 125.388 383.002 121.375 391.963C113.877 408.7 100.28 422.738 80.9588 433.688C64.3288 443.113 43.4258 450.294 18.8318 455.03C-25.6242 463.592 -74.6421 462.543 -105.693 458.706C-113.001 457.804 -118.602 455.663 -122.456 452.315ZM111.618 285.648C107.212 281.82 102.076 278.742 96.2268 276.435C69.7388 265.981 51.1938 264.356 32.2159 270.827C13.8109 277.102 -4.52613 290.814 -32.5401 312.652C-75.8541 346.418 -134.565 412.097 -127.42 442.529C-125.392 451.167 -118.053 456.329 -105.605 457.867C-74.6081 461.696 -25.6751 462.744 18.6999 454.197C43.2179 449.476 64.0458 442.323 80.6068 432.936C99.7768 422.072 113.261 408.161 120.684 391.59C124.668 382.697 138.185 339.77 126.286 307.433C123.028 298.58 118.118 291.296 111.618 285.648Z" fill="url(#paint22_linear_43_2025)"/>
</mask>
<g mask="url(#mask11_43_2025)">
<path d="M-122.456 452.315C-125.349 449.8 -127.258 446.605 -128.166 442.739C-130.442 433.045 -127.427 414.13 -100.139 379.069C-81.8471 355.568 -56.7432 330.481 -32.9862 311.961C-4.91017 290.075 13.4728 276.33 31.9868 270.018C51.1398 263.488 69.8269 265.116 96.4859 275.638C111.181 281.436 121.446 292.029 126.999 307.116C139.004 339.741 125.388 383.002 121.375 391.963C113.877 408.7 100.28 422.738 80.9588 433.688C64.3288 443.113 43.4258 450.294 18.8318 455.03C-25.6242 463.592 -74.6421 462.543 -105.693 458.706C-113.001 457.804 -118.602 455.663 -122.456 452.315ZM111.618 285.648C107.212 281.82 102.076 278.742 96.2268 276.435C69.7388 265.981 51.1938 264.356 32.2159 270.827C13.8109 277.102 -4.52613 290.814 -32.5401 312.652C-75.8541 346.418 -134.565 412.097 -127.42 442.529C-125.392 451.167 -118.053 456.329 -105.605 457.867C-74.6081 461.696 -25.6751 462.744 18.6999 454.197C43.2179 449.476 64.0458 442.323 80.6068 432.936C99.7768 422.072 113.261 408.161 120.684 391.59C124.668 382.697 138.185 339.77 126.286 307.433C123.028 298.58 118.118 291.296 111.618 285.648Z" fill="url(#paint23_linear_43_2025)"/>
</g>
<defs>
<linearGradient id="paint0_linear_43_2025" x1="39.5701" y1="0.43302" x2="39.5701" y2="1046.56" gradientUnits="userSpaceOnUse">
<stop stop-color="white"/>
<stop offset="0.0436" stop-color="#B4B4B4"/>
<stop offset="0.1507"/>
<stop offset="0.1714" stop-color="#171717"/>
<stop offset="0.3859" stop-color="white"/>
<stop offset="0.6326" stop-color="#E6E6E6"/>
<stop offset="0.8567" stop-color="#1A1A1A"/>
<stop offset="0.9987"/>
</linearGradient>
<linearGradient id="paint1_linear_43_2025" x1="39.5703" y1="0.432861" x2="39.5703" y2="1046.56" gradientUnits="userSpaceOnUse">
<stop stop-color="#543ACC"/>
<stop offset="1" stop-color="#34384C" stop-opacity="0"/>
</linearGradient>
<linearGradient id="paint2_linear_43_2025" x1="37.7524" y1="26.0909" x2="37.7524" y2="991.788" gradientUnits="userSpaceOnUse">
<stop stop-color="white"/>
<stop offset="0.0436" stop-color="#B4B4B4"/>
<stop offset="0.1507"/>
<stop offset="0.1714" stop-color="#171717"/>
<stop offset="0.3859" stop-color="white"/>
<stop offset="0.6326" stop-color="#E6E6E6"/>
<stop offset="0.8567" stop-color="#1A1A1A"/>
<stop offset="0.9987"/>
</linearGradient>
<linearGradient id="paint3_linear_43_2025" x1="37.7534" y1="26.0925" x2="37.7534" y2="991.788" gradientUnits="userSpaceOnUse">
<stop stop-color="#543ACC"/>
<stop offset="1" stop-color="#34384C" stop-opacity="0"/>
</linearGradient>
<linearGradient id="paint4_linear_43_2025" x1="35.9164" y1="51.4433" x2="35.9164" y2="937.029" gradientUnits="userSpaceOnUse">
<stop stop-color="white"/>
<stop offset="0.0436" stop-color="#B4B4B4"/>
<stop offset="0.1507"/>
<stop offset="0.1714" stop-color="#171717"/>
<stop offset="0.3859" stop-color="white"/>
<stop offset="0.6326" stop-color="#E6E6E6"/>
<stop offset="0.8567" stop-color="#1A1A1A"/>
<stop offset="0.9987"/>
</linearGradient>
<linearGradient id="paint5_linear_43_2025" x1="35.9167" y1="51.4441" x2="35.9167" y2="937.03" gradientUnits="userSpaceOnUse">
<stop stop-color="#543ACC"/>
<stop offset="1" stop-color="#34384C" stop-opacity="0"/>
</linearGradient>
<linearGradient id="paint6_linear_43_2025" x1="34.0559" y1="76.7942" x2="34.0559" y2="882.286" gradientUnits="userSpaceOnUse">
<stop stop-color="white"/>
<stop offset="0.0436" stop-color="#B4B4B4"/>
<stop offset="0.1507"/>
<stop offset="0.1714" stop-color="#171717"/>
<stop offset="0.3859" stop-color="white"/>
<stop offset="0.6326" stop-color="#E6E6E6"/>
<stop offset="0.8567" stop-color="#1A1A1A"/>
<stop offset="0.9987"/>
</linearGradient>
<linearGradient id="paint7_linear_43_2025" x1="34.0562" y1="76.7935" x2="34.0562" y2="882.285" gradientUnits="userSpaceOnUse">
<stop stop-color="#543ACC"/>
<stop offset="1" stop-color="#34384C" stop-opacity="0"/>
</linearGradient>
<linearGradient id="paint8_linear_43_2025" x1="32.1609" y1="101.832" x2="32.1609" y2="827.566" gradientUnits="userSpaceOnUse">
<stop stop-color="white"/>
<stop offset="0.0436" stop-color="#B4B4B4"/>
<stop offset="0.1507"/>
<stop offset="0.1714" stop-color="#171717"/>
<stop offset="0.3859" stop-color="white"/>
<stop offset="0.6326" stop-color="#E6E6E6"/>
<stop offset="0.8567" stop-color="#1A1A1A"/>
<stop offset="0.9987"/>
</linearGradient>
<linearGradient id="paint9_linear_43_2025" x1="32.1615" y1="101.832" x2="32.1615" y2="827.566" gradientUnits="userSpaceOnUse">
<stop stop-color="#543ACC"/>
<stop offset="1" stop-color="#34384C" stop-opacity="0"/>
</linearGradient>
<linearGradient id="paint10_linear_43_2025" x1="30.216" y1="126.73" x2="30.216" y2="772.875" gradientUnits="userSpaceOnUse">
<stop stop-color="white"/>
<stop offset="0.0436" stop-color="#B4B4B4"/>
<stop offset="0.1507"/>
<stop offset="0.1714" stop-color="#171717"/>
<stop offset="0.3859" stop-color="white"/>
<stop offset="0.6326" stop-color="#E6E6E6"/>
<stop offset="0.8567" stop-color="#1A1A1A"/>
<stop offset="0.9987"/>
</linearGradient>
<linearGradient id="paint11_linear_43_2025" x1="30.2158" y1="126.73" x2="30.2158" y2="772.875" gradientUnits="userSpaceOnUse">
<stop stop-color="#543ACC"/>
<stop offset="1" stop-color="#34384C" stop-opacity="0"/>
</linearGradient>
<linearGradient id="paint12_linear_43_2025" x1="28.1943" y1="151.27" x2="28.1943" y2="718.247" gradientUnits="userSpaceOnUse">
<stop stop-color="white"/>
<stop offset="0.0436" stop-color="#B4B4B4"/>
<stop offset="0.1507"/>
<stop offset="0.1714" stop-color="#171717"/>
<stop offset="0.3859" stop-color="white"/>
<stop offset="0.6326" stop-color="#E6E6E6"/>
<stop offset="0.8567" stop-color="#1A1A1A"/>
<stop offset="0.9987"/>
</linearGradient>
<linearGradient id="paint13_linear_43_2025" x1="28.1953" y1="151.27" x2="28.1953" y2="718.247" gradientUnits="userSpaceOnUse">
<stop stop-color="#543ACC"/>
<stop offset="1" stop-color="#34384C" stop-opacity="0"/>
</linearGradient>
<linearGradient id="paint14_linear_43_2025" x1="26.0444" y1="175.409" x2="26.0444" y2="663.694" gradientUnits="userSpaceOnUse">
<stop stop-color="white"/>
<stop offset="0.0436" stop-color="#B4B4B4"/>
<stop offset="0.1507"/>
<stop offset="0.1714" stop-color="#171717"/>
<stop offset="0.3859" stop-color="white"/>
<stop offset="0.6326" stop-color="#E6E6E6"/>
<stop offset="0.8567" stop-color="#1A1A1A"/>
<stop offset="0.9987"/>
</linearGradient>
<linearGradient id="paint15_linear_43_2025" x1="26.0449" y1="175.409" x2="26.0449" y2="663.695" gradientUnits="userSpaceOnUse">
<stop stop-color="#543ACC"/>
<stop offset="1" stop-color="#34384C" stop-opacity="0"/>
</linearGradient>
<linearGradient id="paint16_linear_43_2025" x1="23.6702" y1="199.216" x2="23.6702" y2="609.33" gradientUnits="userSpaceOnUse">
<stop stop-color="white"/>
<stop offset="0.0436" stop-color="#B4B4B4"/>
<stop offset="0.1507"/>
<stop offset="0.1714" stop-color="#171717"/>
<stop offset="0.3859" stop-color="white"/>
<stop offset="0.6326" stop-color="#E6E6E6"/>
<stop offset="0.8567" stop-color="#1A1A1A"/>
<stop offset="0.9987"/>
</linearGradient>
<linearGradient id="paint17_linear_43_2025" x1="23.6699" y1="199.215" x2="23.6699" y2="609.327" gradientUnits="userSpaceOnUse">
<stop stop-color="#543ACC"/>
<stop offset="1" stop-color="#34384C" stop-opacity="0"/>
</linearGradient>
<linearGradient id="paint18_linear_43_2025" x1="20.7581" y1="222.329" x2="20.7581" y2="555.351" gradientUnits="userSpaceOnUse">
<stop stop-color="white"/>
<stop offset="0.0436" stop-color="#B4B4B4"/>
<stop offset="0.1507"/>
<stop offset="0.1714" stop-color="#171717"/>
<stop offset="0.3859" stop-color="white"/>
<stop offset="0.6326" stop-color="#E6E6E6"/>
<stop offset="0.8567" stop-color="#1A1A1A"/>
<stop offset="0.9987"/>
</linearGradient>
<linearGradient id="paint19_linear_43_2025" x1="20.7576" y1="222.33" x2="20.7576" y2="555.353" gradientUnits="userSpaceOnUse">
<stop stop-color="#543ACC"/>
<stop offset="1" stop-color="#34384C" stop-opacity="0"/>
</linearGradient>
<linearGradient id="paint20_linear_43_2025" x1="12.2428" y1="244.748" x2="12.2428" y2="502.691" gradientUnits="userSpaceOnUse">
<stop stop-color="white"/>
<stop offset="0.0436" stop-color="#B4B4B4"/>
<stop offset="0.1507"/>
<stop offset="0.1714" stop-color="#171717"/>
<stop offset="0.3859" stop-color="white"/>
<stop offset="0.6326" stop-color="#E6E6E6"/>
<stop offset="0.8567" stop-color="#1A1A1A"/>
<stop offset="0.9987"/>
</linearGradient>
<linearGradient id="paint21_linear_43_2025" x1="12.2431" y1="244.749" x2="12.2431" y2="502.692" gradientUnits="userSpaceOnUse">
<stop stop-color="#543ACC"/>
<stop offset="1" stop-color="#34384C" stop-opacity="0"/>
</linearGradient>
<linearGradient id="paint22_linear_43_2025" x1="1.53206" y1="266.144" x2="1.53206" y2="461.571" gradientUnits="userSpaceOnUse">
<stop stop-color="white"/>
<stop offset="0.0436" stop-color="#B4B4B4"/>
<stop offset="0.1507"/>
<stop offset="0.1714" stop-color="#171717"/>
<stop offset="0.3859" stop-color="white"/>
<stop offset="0.6326" stop-color="#E6E6E6"/>
<stop offset="0.8567" stop-color="#1A1A1A"/>
<stop offset="0.9987"/>
</linearGradient>
<linearGradient id="paint23_linear_43_2025" x1="1.53165" y1="266.144" x2="1.53165" y2="461.571" gradientUnits="userSpaceOnUse">
<stop stop-color="#543ACC"/>
<stop offset="1" stop-color="#34384C" stop-opacity="0"/>
</linearGradient>
</defs>
</svg>
